<svg xmlns="http://www.w3.org/2000/svg" xmlns:xlink="http://www.w3.org/1999/xlink" style="none">

<symbol id="twitter" viewBox="0 0 112.197 112.197">
<g>
	<circle style="fill:#555;" cx="56.099" cy="56.098" r="56.098"/>
	<g>
		<path style="fill:#F1F2F2;" d="M90.461,40.316c-2.404,1.066-4.99,1.787-7.702,2.109c2.769-1.659,4.894-4.284,5.897-7.417
			c-2.591,1.537-5.462,2.652-8.515,3.253c-2.446-2.605-5.931-4.233-9.79-4.233c-7.404,0-13.409,6.005-13.409,13.409
			c0,1.051,0.119,2.074,0.349,3.056c-11.144-0.559-21.025-5.897-27.639-14.012c-1.154,1.98-1.816,4.285-1.816,6.742
			c0,4.651,2.369,8.757,5.965,11.161c-2.197-0.069-4.266-0.672-6.073-1.679c-0.001,0.057-0.001,0.114-0.001,0.17
			c0,6.497,4.624,11.916,10.757,13.147c-1.124,0.308-2.311,0.471-3.532,0.471c-0.866,0-1.705-0.083-2.523-0.239
			c1.706,5.326,6.657,9.203,12.526,9.312c-4.59,3.597-10.371,5.74-16.655,5.74c-1.08,0-2.15-0.063-3.197-0.188
			c5.931,3.806,12.981,6.025,20.553,6.025c24.664,0,38.152-20.432,38.152-38.153c0-0.581-0.013-1.16-0.039-1.734
			C86.391,45.366,88.664,43.005,90.461,40.316L90.461,40.316z"/>
	</g>
</g>
</symbol>

<symbol id="getting-started-program" viewBox="0 0 512.006 512.006">
<g>
	<g>
		<g>
			<path d="M246.833,106.67H289.5c11.797,0,21.333-9.536,21.333-21.333c0-11.797-9.536-21.333-21.333-21.333h-42.667
				c-11.797,0-21.333,9.536-21.333,21.333C225.5,97.134,235.036,106.67,246.833,106.67z"/>
			<path d="M374.833,106.67h30.507c3.115,0,6.165,0.213,9.131,0.64c1.024,0.149,2.027,0.213,3.029,0.213
				c10.453,0,19.584-7.68,21.099-18.325c1.643-11.669-6.443-22.464-18.112-24.128c-4.949-0.683-9.984-1.067-15.147-1.067h-30.507
				c-11.797,0-21.333,9.536-21.333,21.333C353.5,97.134,363.036,106.67,374.833,106.67z"/>
			<path d="M435.974,226.883c-9.301,5.099-19.904,7.787-30.635,7.787c-0.001,0-0.002,0-0.003,0s-0.002,0-0.003,0H106.667
				C47.759,234.67,0,282.429,0,341.337s47.759,106.667,106.667,106.667h225.83l-27.582,27.582c-8.331,8.331-8.331,21.839,0,30.17
				c8.331,8.331,21.839,8.331,30.17,0l64-64c0.004-0.004,0.006-0.008,0.01-0.011c0.493-0.494,0.96-1.012,1.403-1.552
				c0.203-0.247,0.379-0.507,0.569-0.761c0.227-0.303,0.462-0.6,0.673-0.915c0.203-0.304,0.379-0.619,0.565-0.93
				c0.171-0.286,0.35-0.565,0.508-0.86c0.17-0.317,0.313-0.643,0.466-0.967c0.145-0.308,0.299-0.61,0.43-0.925
				c0.13-0.314,0.235-0.635,0.349-0.953c0.122-0.338,0.251-0.672,0.356-1.018c0.096-0.318,0.167-0.642,0.248-0.964
				c0.089-0.353,0.188-0.701,0.259-1.061c0.074-0.372,0.117-0.748,0.171-1.122c0.045-0.314,0.105-0.622,0.136-0.941
				c0.138-1.4,0.138-2.81,0-4.21c-0.031-0.318-0.091-0.627-0.136-0.941c-0.054-0.375-0.097-0.75-0.171-1.122
				c-0.071-0.359-0.17-0.708-0.259-1.061c-0.081-0.322-0.152-0.645-0.248-0.964c-0.105-0.346-0.234-0.68-0.356-1.018
				c-0.114-0.318-0.219-0.639-0.349-0.953c-0.131-0.315-0.284-0.618-0.43-0.925c-0.153-0.324-0.296-0.65-0.466-0.967
				c-0.158-0.294-0.337-0.574-0.508-0.86c-0.186-0.311-0.362-0.627-0.565-0.93c-0.211-0.315-0.446-0.612-0.673-0.915
				c-0.19-0.254-0.366-0.514-0.569-0.761c-0.443-0.54-0.91-1.059-1.403-1.552c-0.004-0.004-0.006-0.008-0.01-0.011l-64-64
				c-8.331-8.331-21.839-8.331-30.17,0c-8.331,8.331-8.331,21.839,0,30.17l27.582,27.582h-225.83c-35.343,0-64-28.657-64-64
				c0-35.343,28.657-64,64-64h298.667c0.001,0,0.002,0,0.003,0s0.002,0,0.003,0c17.877,0,35.541-4.501,51.136-13.035
				c10.347-5.653,14.123-18.603,8.469-28.971C459.292,225.006,446.342,221.166,435.974,226.883z"/>
			<path d="M502.364,126.318c-4.928-10.688-17.557-15.381-28.309-10.496c-10.709,4.907-15.403,17.579-10.496,28.288
				c3.84,8.341,5.781,17.259,5.781,26.347c-0.021,1.6-0.064,3.2-0.171,4.757c-0.853,11.755,7.957,21.952,19.733,22.805
				c0.512,0.043,1.045,0.064,1.557,0.064c11.072,0,20.437-8.555,21.248-19.797c0.192-2.432,0.277-4.885,0.299-7.616
				C512.006,155.203,508.742,140.27,502.364,126.318z"/>
			<path d="M176.915,164.421c8.331,8.331,21.839,8.331,30.17,0s8.331-21.839,0-30.17L158.17,85.337l48.915-48.915
				c8.331-8.331,8.331-21.839,0-30.17c-8.331-8.331-21.839-8.331-30.17,0l-64,64c-8.331,8.331-8.331,21.839,0,30.17L176.915,164.421
				z"/>
		</g>
	</g>
</g>
</symbol>

<symbol id="beginner-program" viewBox="0 0 511.999 511.999">
<g>
	<g>
		<path d="M364.917,374.977l-18.376-17.894c-13.436,5.551-29.424,1.533-38.492-10.667c-6.877-9.25-8.095-20.952-4.282-30.983
			l-33.107-32.236c-7.547-7.349-19.218-8.39-27.947-2.494l-55.298,37.353l-23.495-90.658l50.16-75.24
			c3.288-4.932,3.709-11.238,1.107-16.564c-2.601-5.325-7.835-8.869-13.747-9.307l-66.788-4.947
			c6.406,6.782,10.969,15.211,13.077,24.371c0.774,3.364,1.212,6.753,1.327,10.126l21.441,1.588l-29.629,44.443L79.773,217.4
			l21.785,19.402l-59.234-33.965l11.844-13.876c-4.319-5.811-7.445-12.493-9.085-19.618c-1.559-6.771-1.764-13.641-0.68-20.297
			L3.99,196.4c-3.211,3.761-4.584,8.755-3.752,13.629s3.788,9.128,8.065,11.611l78.38,45.49l-16.537-3.997l25.961,111.895
			c2.64,11.381,10.711,20.734,21.583,25.012c10.872,4.279,23.152,2.934,32.841-3.595l102.074-68.782l81.298,79.162
			c8.797,8.565,22.871,8.375,31.432-0.417C373.899,397.613,373.712,383.541,364.917,374.977z"/>
	</g>
</g>
<g>
	<g>
		<circle cx="96.409" cy="157.528" r="38.575"/>
	</g>
</g>
<g>
	<g>
		<circle cx="385.972" cy="139.583" r="40.711"/>
	</g>
</g>
<g>
	<g>
		<path d="M510.761,307.093c-3.264-12.484-4.826-18.202-28.48-104.096c-4.559-16.559-21.766-26.22-38.271-21.499l-27.318,7.811
			c-16.497,4.717-25.989,21.994-21.131,38.444l2.036,6.895l16.477-17.368l-28.024,48.171l-62.908,46.764
			c-8.175,6.078-9.875,17.631-3.799,25.807c6.076,8.175,17.631,9.876,25.807,3.799l65.944-49.022c2.004-1.49,3.684-3.37,4.939-5.527
			l29.929-51.445l-17.765,58.522c-1.517,4.996-4.733,6.792-8.707,9.745l-50.315,37.403c2.252,2.627-3.793-2.215,87.974,67.07
			c9.757,7.367,23.636,5.427,31.002-4.327c7.367-9.756,5.428-23.635-4.327-31.002l-40.839-30.834l49.568-6.077
			C506.474,334.62,515.405,320.501,510.761,307.093z"/>
	</g>
</g>
</symbol>

<symbol id="mass-gain-program" viewBox="0 0 548.952 548.952">
<g>
	<path style="fill:#010002;" d="M501.217,45.36h-11.934h-47.735v65.164H137.137l-1.516-1.516l-1.516,1.516h-26.702V50.856H59.669
		H47.735H0v127.291h47.735h11.934h47.735v-55.689h24.798l99.509,99.515v171.231h-77.569v110.387h41.768v-57.431h157.376v57.431
		h41.768V393.205h-76.078V222.481L419,122.458h22.549v50.199h47.735h11.934h47.735V45.36H501.217z M149.07,122.458h94.181
		c-14.917,10.353-24.721,27.585-24.721,47.079c0,12.322,3.986,23.677,10.645,33.021L149.07,122.458z M323.792,200.785
		c5.895-8.986,9.338-19.715,9.338-31.248c0-19.494-9.804-36.726-24.721-47.079h93.716L323.792,200.785z"/>
</g>

</symbol>

<symbol id="time" viewBox="0 0 83.001 83.001">
<g>
	<path d="M41.5,0C18.617,0,0.001,18.617,0.001,41.5c0,22.884,18.616,41.501,41.499,41.501C64.383,83.001,83,64.384,83,41.5
		C83,18.617,64.382,0,41.5,0z M41.5,77.001C21.926,77.001,6,61.075,6,41.5S21.925,6,41.5,6C61.075,6,77,21.925,77,41.5
		S61.075,77.001,41.5,77.001z"/>
	<path d="M53.508,45.32c-0.016,0-0.03,0-0.046,0L44.5,45.454V22c0-1.657-1.343-3-3-3s-3,1.343-3,3v26.5
		c0,0.006,0.002,0.012,0.002,0.018c0,0.01-0.002,0.019-0.002,0.027c0.002,0.122,0.025,0.237,0.041,0.354
		c0.01,0.073,0.011,0.148,0.025,0.22c0.027,0.129,0.072,0.249,0.115,0.37c0.022,0.063,0.036,0.129,0.062,0.189
		c0.052,0.123,0.122,0.235,0.189,0.35c0.031,0.051,0.054,0.107,0.087,0.157c0.076,0.111,0.167,0.21,0.257,0.311
		c0.038,0.042,0.069,0.09,0.109,0.131c0.097,0.096,0.206,0.177,0.315,0.26c0.044,0.033,0.083,0.073,0.128,0.104
		c0.118,0.08,0.247,0.143,0.376,0.205c0.045,0.021,0.085,0.051,0.131,0.07c0.15,0.063,0.31,0.107,0.472,0.146
		c0.03,0.007,0.058,0.021,0.089,0.027c0.194,0.039,0.395,0.061,0.601,0.061c0.015,0,0.031,0,0.046,0l12.008-0.18
		c1.656-0.025,2.979-1.389,2.955-3.045C56.483,46.634,55.144,45.32,53.508,45.32z"/>
</g>

</symbol>

<symbol id="comments" viewBox="-0.5 0.5 42 42">
<path d="M29.5,30.5h7c2.529,0,3-0.529,3-3v-21c0-2.41-0.59-3-3-3h-32c-2.47,0-3,0.53-3,3v20.971c0,2.469,0.41,3.029,3,3.029h13
	c0,0,9.562,8.756,10.75,9.812c0.422,0.375,1.281,0.172,1.25-0.812V30.5z M7.5,21.5h21v3h-21V21.5z M7.5,15.5h13v3h-13V15.5z
	 M7.5,9.5h26v3h-26V9.5z"/>
</symbol>


<symbol id="right-arrow" viewBox="0 0 297 297">
<g>
	<path d="M148.5,0C66.485,0,0,66.485,0,148.5S66.485,297,148.5,297S297,230.515,297,148.5S230.515,0,148.5,0z M159.083,231.5H90.75
		l74.25-84l-74.25-81h68.333l71.917,81L159.083,231.5z"/>
</g>

</symbol>


<symbol id="quote" viewBox="0 0 24 24">
<g>
	<path d="M11.192 15.757c0-.88-.23-1.618-.69-2.217-.326-.412-.768-.683-1.327-.812-.55-.128-1.07-.137-1.54-.028-.16-.95.1-1.956.76-3.022.66-1.065 1.515-1.867 2.558-2.403L9.373 5c-.8.396-1.56.898-2.26 1.505-.71.607-1.34 1.305-1.9 2.094s-.98 1.68-1.25 2.69-.346 2.04-.217 3.1c.168 1.4.62 2.52 1.356 3.35.735.84 1.652 1.26 2.748 1.26.965 0 1.766-.29 2.4-.878.628-.576.94-1.365.94-2.368l.002.003zm9.124 0c0-.88-.23-1.618-.69-2.217-.326-.42-.77-.692-1.327-.817-.56-.124-1.074-.13-1.54-.022-.16-.94.09-1.95.75-3.02.66-1.06 1.514-1.86 2.557-2.4L18.49 5c-.8.396-1.555.898-2.26 1.505-.708.607-1.34 1.305-1.894 2.094-.556.79-.97 1.68-1.24 2.69-.273 1-.345 2.04-.217 3.1.165 1.4.615 2.52 1.35 3.35.732.833 1.646 1.25 2.742 1.25.967 0 1.768-.29 2.402-.876.627-.576.942-1.365.942-2.368v.01z"/>
</g>
</symbol>

<symbol id="user-avatar" viewBox="0 0 53 53">
<path style="fill:#E7ECED;" d="M18.613,41.552l-7.907,4.313c-0.464,0.253-0.881,0.564-1.269,0.903C14.047,50.655,19.998,53,26.5,53
	c6.454,0,12.367-2.31,16.964-6.144c-0.424-0.358-0.884-0.68-1.394-0.934l-8.467-4.233c-1.094-0.547-1.785-1.665-1.785-2.888v-3.322
	c0.238-0.271,0.51-0.619,0.801-1.03c1.154-1.63,2.027-3.423,2.632-5.304c1.086-0.335,1.886-1.338,1.886-2.53v-3.546
	c0-0.78-0.347-1.477-0.886-1.965v-5.126c0,0,1.053-7.977-9.75-7.977s-9.75,7.977-9.75,7.977v5.126
	c-0.54,0.488-0.886,1.185-0.886,1.965v3.546c0,0.934,0.491,1.756,1.226,2.231c0.886,3.857,3.206,6.633,3.206,6.633v3.24
	C20.296,39.899,19.65,40.986,18.613,41.552z"/>
<g>
	<path style="fill:#556080;" d="M26.953,0.004C12.32-0.246,0.254,11.414,0.004,26.047C-0.138,34.344,3.56,41.801,9.448,46.76
		c0.385-0.336,0.798-0.644,1.257-0.894l7.907-4.313c1.037-0.566,1.683-1.653,1.683-2.835v-3.24c0,0-2.321-2.776-3.206-6.633
		c-0.734-0.475-1.226-1.296-1.226-2.231v-3.546c0-0.78,0.347-1.477,0.886-1.965v-5.126c0,0-1.053-7.977,9.75-7.977
		s9.75,7.977,9.75,7.977v5.126c0.54,0.488,0.886,1.185,0.886,1.965v3.546c0,1.192-0.8,2.195-1.886,2.53
		c-0.605,1.881-1.478,3.674-2.632,5.304c-0.291,0.411-0.563,0.759-0.801,1.03V38.8c0,1.223,0.691,2.342,1.785,2.888l8.467,4.233
		c0.508,0.254,0.967,0.575,1.39,0.932c5.71-4.762,9.399-11.882,9.536-19.9C53.246,12.32,41.587,0.254,26.953,0.004z"/>
</g>
</symbol>

</svg>
